/* XPM */
static char * bottom_left_inactive_xpm[] = {
"14 14 3 1",
"       c None",
".      c #FFFFFF s inactive_color_1",
"x			c #000000 s inactive_color_2",
"xx....        "};
"xx....        "};
"xx....        "};
"xx....        "};
"xx....        "};
"xx....        "};
" xx...        "};
" xx...        "};
"  xx.........."};
"  xx.........."};
"   xx........."};
"    xxx......."};
"      xxxxxxxx"};
"        xxxxxx"};
