/* XPM */
static char * bottom_inactive_xpm[] = {
"1 6 2 1",
". 	c #FFFFFF s inactive_color_1",
"x	c #000000 s inactive_color_2",
".",
".",
".",
".",
"x",
"x"};