/* XPM */
static char * bottom_left_active_xpm[] = {
"14 14 3 1",
"       c None",
".      c #FFFFFF s active_color_2",
"x		c #000000 s active_color_2",
"        .....x"};
"        .....x"};
"        .....x"};
"        .....x"};
"        .....x"};
"        .....x"};
"        .....x"};
"        .....x"};
".............x"};
".............x"};
".............x"};
".............x"};
".............x"};
"xxxxxxxxxxxxxx"};
