/* XPM */
static char * bottom_right_active_xpm[] = {
"14 14 3 1",
"       c None",
".      c #FFFFFF s active_color_1",
"x			c #000000 s active_color_2",
"        ....xx"};
"        ....xx"};
"        ....xx"};
"        ....xx"};
"        ....xx"};
"        ....xx"};
"        ...xx "};
"        ...xx "};
"..........xx  "};
"..........xx  "};
".........xx   "};
".......xxx    "};
"xxxxxxxx      "};
"xxxxxx        "};
