/* XPM */
static char * bottom_left_active_xpm[] = {
"14 14 2 1",
"       c None",
".      c #FFFFFF s active_color_2",
".....         "};
".....         "};
".....         "};
".....         "};
".....         "};
".....         "};
".....         "};
".....         "};
".....         "};
".............."};
".............."};
".............."};
".............."};
".............."};
