/* XPM */
static char * shade_prelight_xpm[] = {
"24 26 2 1",
".	c #000000 s active_color_1",
"+	c #ffffff",
"........................",
"........................",
"........................",
"........................",
"........................",
"........................",
"........................",
"........................",
"........................",
"...........++...........",
"..........++++..........",
".........++++++.........",
"........++++++++........",
".......++..++..++.......",
"...........++...........",
"...........++...........",
"...........++...........",
"........................",
"........................",
"........................",
"........................",
"........................",
"........................",
"........................",
"........................",
"........................"};
