/* XPM */
static char * top_left_inactive_xpm[] = {
"6 31 3 1",
"       c None",
".      c #FFFFFF s inactive_color_2",
"x			c #000000 s inactive_color_2",
"    xx"};
"  xxxx"};
" xx..."};
" xx..."};
"xx...."};
"xx...."};
"xx...."};
"xx...."};
"xx...."};
"xx...."};
"xx...."};
"xx...."};
"xx...."};
"xx...."};
"xx...."};
"xx...."};
"xx...."};
"xx...."};
"xx...."};
"xx...."};
"xx...."};
"xx...."};
"xx...."};
"xx...."};
"xx...."};
"xx...."};
"xx...."};
"xx...."};
"xx...."};
"xx...."};
"xx...."};
