/* XPM */
static char * top_right_active_xpm[] = {
"2 26 3 1",
" 	c None",
".	c #FFFFFF s active_color_2",
"@	c #000000 s active_color_2",
"@ ",
"@@",
".@",
".@",
".@",
".@",
".@",
".@",
".@",
".@",
".@",
".@",
".@",
".@",
".@",
".@",
".@",
".@",
".@",
".@",
".@",
".@",
".@",
".@",
".@",
".@"};
