/* XPM */
static char * top_right_active_xpm[] = {
"6 31 3 1",
"       c None",
".      c #FFFFFF s active_color_2",
"x			c #000000 s active_color_2",
"xx    "};
"xxxx  "};
"...xx "};
"...xx "};
"....xx"};
"....xx"};
"....xx"};
"....xx"};
"....xx"};
"....xx"};
"....xx"};
"....xx"};
"....xx"};
"....xx"};
"....xx"};
"....xx"};
"....xx"};
"....xx"};
"....xx"};
"....xx"};
"....xx"};
"....xx"};
"....xx"};
"....xx"};
"....xx"};
"....xx"};
"....xx"};
"....xx"};
"....xx"};
"....xx"};
"....xx"};
