/* XPM */
static char * top_left_active_xpm[] = {
"9 31 3 1",
"       c None",
".      c #FFFFFF s active_color_1",
"x			c #000000 s active_color_2",
"        x"};
"      xxx"};
"    xxx.."};
"   xx...."};
"  xx....."};
"  xx....."};
" xx......"};
" xx......"};
"xx......."};
"xx......."};
"xx......."};
"xx......."};
"xx......."};
"xx......."};
"xx......."};
"xx......."};
"xx......."};
"xx......."};
"xx......."};
"xx......."};
"xx......."};
"xx......."};
"xx......."};
"xx......."};
"xx......."};
"xx......."};
"xx......."};
"xx......."};
"xx......."};
"xx......."};
"xx......."};
